<mxfile host="app.diagrams.net" modified="2021-02-26T09:21:52.988Z" agent="5.0 (Windows)" etag="DKybG7ZuYnLlX6_Kd7i-" version="14.4.3" type="github">
  <diagram id="C5RBs43oDa-KdzZeNtuy" name="Page-1">
    <mxGraphModel dx="3129" dy="1123" grid="1" gridSize="10" guides="1" tooltips="1" connect="1" arrows="1" fold="1" page="1" pageScale="1" pageWidth="827" pageHeight="1169" math="0" shadow="0">
      <root>
        <mxCell id="WIyWlLk6GJQsqaUBKTNV-0" />
        <mxCell id="WIyWlLk6GJQsqaUBKTNV-1" parent="WIyWlLk6GJQsqaUBKTNV-0" />
        <mxCell id="zkfFHV4jXpPFQw0GAbJ--0" value="Cards" style="swimlane;fontStyle=2;align=center;verticalAlign=top;childLayout=stackLayout;horizontal=1;startSize=26;horizontalStack=0;resizeParent=1;resizeLast=0;collapsible=1;marginBottom=0;rounded=0;shadow=0;strokeWidth=1;" parent="WIyWlLk6GJQsqaUBKTNV-1" vertex="1">
          <mxGeometry x="-70" y="70" width="180" height="310" as="geometry">
            <mxRectangle x="230" y="140" width="160" height="26" as="alternateBounds" />
          </mxGeometry>
        </mxCell>
        <mxCell id="xebQPA5SNUuZlElYcB30-27" value="String file_path" style="text;html=1;strokeColor=none;fillColor=none;align=left;verticalAlign=middle;whiteSpace=wrap;rounded=0;" parent="zkfFHV4jXpPFQw0GAbJ--0" vertex="1">
          <mxGeometry y="26" width="180" height="20" as="geometry" />
        </mxCell>
        <mxCell id="xebQPA5SNUuZlElYcB30-46" value="ArrayList&amp;lt;String&amp;gt; questions" style="text;html=1;strokeColor=none;fillColor=none;align=left;verticalAlign=middle;whiteSpace=wrap;rounded=0;" parent="zkfFHV4jXpPFQw0GAbJ--0" vertex="1">
          <mxGeometry y="46" width="180" height="20" as="geometry" />
        </mxCell>
        <mxCell id="xebQPA5SNUuZlElYcB30-47" value="List&amp;lt;List&amp;lt;String&amp;gt;&amp;gt; choices" style="text;html=1;strokeColor=none;fillColor=none;align=left;verticalAlign=middle;whiteSpace=wrap;rounded=0;" parent="zkfFHV4jXpPFQw0GAbJ--0" vertex="1">
          <mxGeometry y="66" width="180" height="20" as="geometry" />
        </mxCell>
        <mxCell id="NdgY7wbA8HRYmO2Sopo_-1" value="ArrayList&amp;lt;String&amp;gt; answers" style="text;html=1;strokeColor=none;fillColor=none;align=center;verticalAlign=middle;whiteSpace=wrap;rounded=0;" parent="zkfFHV4jXpPFQw0GAbJ--0" vertex="1">
          <mxGeometry y="86" width="180" height="20" as="geometry" />
        </mxCell>
        <mxCell id="NdgY7wbA8HRYmO2Sopo_-2" value="ArrayList&amp;lt;String&amp;gt; reasons" style="text;html=1;strokeColor=none;fillColor=none;align=center;verticalAlign=middle;whiteSpace=wrap;rounded=0;" parent="zkfFHV4jXpPFQw0GAbJ--0" vertex="1">
          <mxGeometry y="106" width="180" height="20" as="geometry" />
        </mxCell>
        <mxCell id="NdgY7wbA8HRYmO2Sopo_-3" value="int curCard" style="text;html=1;strokeColor=none;fillColor=none;align=center;verticalAlign=middle;whiteSpace=wrap;rounded=0;" parent="zkfFHV4jXpPFQw0GAbJ--0" vertex="1">
          <mxGeometry y="126" width="180" height="20" as="geometry" />
        </mxCell>
        <mxCell id="zkfFHV4jXpPFQw0GAbJ--4" value="" style="line;html=1;strokeWidth=1;align=left;verticalAlign=middle;spacingTop=-1;spacingLeft=3;spacingRight=3;rotatable=0;labelPosition=right;points=[];portConstraint=eastwest;" parent="zkfFHV4jXpPFQw0GAbJ--0" vertex="1">
          <mxGeometry y="146" width="180" height="44" as="geometry" />
        </mxCell>
        <mxCell id="KH0oMgd1c5yute4s8Psu-13" value="&lt;div align=&quot;left&quot;&gt;parse()&lt;/div&gt;" style="text;html=1;strokeColor=none;fillColor=none;align=left;verticalAlign=middle;whiteSpace=wrap;rounded=0;" parent="zkfFHV4jXpPFQw0GAbJ--0" vertex="1">
          <mxGeometry y="190" width="180" height="20" as="geometry" />
        </mxCell>
        <mxCell id="xebQPA5SNUuZlElYcB30-16" value="&lt;div align=&quot;left&quot;&gt;getAnswer()&lt;/div&gt;" style="text;html=1;strokeColor=none;fillColor=none;align=left;verticalAlign=middle;whiteSpace=wrap;rounded=0;" parent="zkfFHV4jXpPFQw0GAbJ--0" vertex="1">
          <mxGeometry y="210" width="180" height="20" as="geometry" />
        </mxCell>
        <mxCell id="xebQPA5SNUuZlElYcB30-17" value="&lt;div align=&quot;left&quot;&gt;getQuestion()&lt;/div&gt;" style="text;html=1;strokeColor=none;fillColor=none;align=left;verticalAlign=middle;whiteSpace=wrap;rounded=0;" parent="zkfFHV4jXpPFQw0GAbJ--0" vertex="1">
          <mxGeometry y="230" width="180" height="20" as="geometry" />
        </mxCell>
        <mxCell id="xebQPA5SNUuZlElYcB30-6" value="&lt;div align=&quot;left&quot;&gt;getReason()&lt;/div&gt;" style="text;html=1;strokeColor=none;fillColor=none;align=left;verticalAlign=middle;whiteSpace=wrap;rounded=0;" parent="zkfFHV4jXpPFQw0GAbJ--0" vertex="1">
          <mxGeometry y="250" width="180" height="20" as="geometry" />
        </mxCell>
        <mxCell id="xebQPA5SNUuZlElYcB30-34" value="&lt;div align=&quot;left&quot;&gt;next()&lt;/div&gt;" style="text;html=1;strokeColor=none;fillColor=none;align=left;verticalAlign=middle;whiteSpace=wrap;rounded=0;" parent="zkfFHV4jXpPFQw0GAbJ--0" vertex="1">
          <mxGeometry y="270" width="180" height="20" as="geometry" />
        </mxCell>
        <mxCell id="NdgY7wbA8HRYmO2Sopo_-0" value="&lt;div align=&quot;left&quot;&gt;getChoices()&lt;/div&gt;" style="text;html=1;strokeColor=none;fillColor=none;align=left;verticalAlign=middle;whiteSpace=wrap;rounded=0;" parent="zkfFHV4jXpPFQw0GAbJ--0" vertex="1">
          <mxGeometry y="290" width="180" height="20" as="geometry" />
        </mxCell>
        <mxCell id="xebQPA5SNUuZlElYcB30-97" style="edgeStyle=orthogonalEdgeStyle;rounded=0;orthogonalLoop=1;jettySize=auto;html=1;entryX=0.625;entryY=1.1;entryDx=0;entryDy=0;entryPerimeter=0;" parent="WIyWlLk6GJQsqaUBKTNV-1" source="xebQPA5SNUuZlElYcB30-35" target="GBBp3sAOk5Nv1iFzANX5-74" edge="1">
          <mxGeometry relative="1" as="geometry">
            <mxPoint x="430" y="360" as="targetPoint" />
            <Array as="points">
              <mxPoint x="370" y="360" />
            </Array>
          </mxGeometry>
        </mxCell>
        <mxCell id="xebQPA5SNUuZlElYcB30-35" value="MenuPane" style="swimlane;fontStyle=1;align=center;verticalAlign=top;childLayout=stackLayout;horizontal=1;startSize=26;horizontalStack=0;resizeParent=1;resizeParentMax=0;resizeLast=0;collapsible=1;marginBottom=0;" parent="WIyWlLk6GJQsqaUBKTNV-1" vertex="1">
          <mxGeometry x="420" y="380" width="170" height="288" as="geometry" />
        </mxCell>
        <mxCell id="GBBp3sAOk5Nv1iFzANX5-76" value="&lt;div align=&quot;left&quot;&gt;MainApplication program&lt;/div&gt;" style="text;html=1;strokeColor=none;fillColor=none;align=left;verticalAlign=middle;whiteSpace=wrap;rounded=0;" vertex="1" parent="xebQPA5SNUuZlElYcB30-35">
          <mxGeometry y="26" width="170" height="20" as="geometry" />
        </mxCell>
        <mxCell id="KH0oMgd1c5yute4s8Psu-11" value="&lt;div align=&quot;left&quot;&gt;GImage background&lt;/div&gt;" style="text;html=1;strokeColor=none;fillColor=none;align=left;verticalAlign=middle;whiteSpace=wrap;rounded=0;" parent="xebQPA5SNUuZlElYcB30-35" vertex="1">
          <mxGeometry y="46" width="170" height="20" as="geometry" />
        </mxCell>
        <mxCell id="xebQPA5SNUuZlElYcB30-36" value="GImage play" style="text;strokeColor=none;fillColor=none;align=left;verticalAlign=top;spacingLeft=4;spacingRight=4;overflow=hidden;rotatable=0;points=[[0,0.5],[1,0.5]];portConstraint=eastwest;" parent="xebQPA5SNUuZlElYcB30-35" vertex="1">
          <mxGeometry y="66" width="170" height="26" as="geometry" />
        </mxCell>
        <mxCell id="xebQPA5SNUuZlElYcB30-39" value="&lt;div align=&quot;left&quot;&gt;GImage end&lt;br&gt;&lt;/div&gt;" style="text;html=1;strokeColor=none;fillColor=none;align=left;verticalAlign=middle;whiteSpace=wrap;rounded=0;" parent="xebQPA5SNUuZlElYcB30-35" vertex="1">
          <mxGeometry y="92" width="170" height="20" as="geometry" />
        </mxCell>
        <mxCell id="GBBp3sAOk5Nv1iFzANX5-79" value="&lt;div align=&quot;left&quot;&gt;int PLAY_BUTTON_X&lt;/div&gt;" style="text;html=1;strokeColor=none;fillColor=none;align=left;verticalAlign=middle;whiteSpace=wrap;rounded=0;" vertex="1" parent="xebQPA5SNUuZlElYcB30-35">
          <mxGeometry y="112" width="170" height="20" as="geometry" />
        </mxCell>
        <mxCell id="GBBp3sAOk5Nv1iFzANX5-80" value="&lt;div align=&quot;left&quot;&gt;int PLAY_BUTTON_Y&lt;/div&gt;" style="text;html=1;strokeColor=none;fillColor=none;align=left;verticalAlign=middle;whiteSpace=wrap;rounded=0;" vertex="1" parent="xebQPA5SNUuZlElYcB30-35">
          <mxGeometry y="132" width="170" height="20" as="geometry" />
        </mxCell>
        <mxCell id="GBBp3sAOk5Nv1iFzANX5-81" value="&lt;div align=&quot;left&quot;&gt;int BG_WIDTH&lt;/div&gt;" style="text;html=1;strokeColor=none;fillColor=none;align=left;verticalAlign=middle;whiteSpace=wrap;rounded=0;" vertex="1" parent="xebQPA5SNUuZlElYcB30-35">
          <mxGeometry y="152" width="170" height="20" as="geometry" />
        </mxCell>
        <mxCell id="GBBp3sAOk5Nv1iFzANX5-82" value="&lt;div align=&quot;left&quot;&gt;int BG_HEIGHT&lt;/div&gt;" style="text;html=1;strokeColor=none;fillColor=none;align=left;verticalAlign=middle;whiteSpace=wrap;rounded=0;" vertex="1" parent="xebQPA5SNUuZlElYcB30-35">
          <mxGeometry y="172" width="170" height="20" as="geometry" />
        </mxCell>
        <mxCell id="xebQPA5SNUuZlElYcB30-37" value="" style="line;strokeWidth=1;fillColor=none;align=left;verticalAlign=middle;spacingTop=-1;spacingLeft=3;spacingRight=3;rotatable=0;labelPosition=right;points=[];portConstraint=eastwest;" parent="xebQPA5SNUuZlElYcB30-35" vertex="1">
          <mxGeometry y="192" width="170" height="30" as="geometry" />
        </mxCell>
        <mxCell id="xebQPA5SNUuZlElYcB30-38" value="showContents()" style="text;strokeColor=none;fillColor=none;align=left;verticalAlign=top;spacingLeft=4;spacingRight=4;overflow=hidden;rotatable=0;points=[[0,0.5],[1,0.5]];portConstraint=eastwest;" parent="xebQPA5SNUuZlElYcB30-35" vertex="1">
          <mxGeometry y="222" width="170" height="26" as="geometry" />
        </mxCell>
        <mxCell id="xebQPA5SNUuZlElYcB30-49" value="&lt;div align=&quot;left&quot;&gt;hideContents()&lt;/div&gt;" style="text;html=1;strokeColor=none;fillColor=none;align=left;verticalAlign=middle;whiteSpace=wrap;rounded=0;" parent="xebQPA5SNUuZlElYcB30-35" vertex="1">
          <mxGeometry y="248" width="170" height="20" as="geometry" />
        </mxCell>
        <mxCell id="xebQPA5SNUuZlElYcB30-51" value="&lt;div align=&quot;left&quot;&gt;mousePressed()&lt;/div&gt;" style="text;html=1;strokeColor=none;fillColor=none;align=left;verticalAlign=middle;whiteSpace=wrap;rounded=0;" parent="xebQPA5SNUuZlElYcB30-35" vertex="1">
          <mxGeometry y="268" width="170" height="20" as="geometry" />
        </mxCell>
        <mxCell id="xebQPA5SNUuZlElYcB30-40" value="GamePlay Pane" style="swimlane;fontStyle=1;align=center;verticalAlign=top;childLayout=stackLayout;horizontal=1;startSize=26;horizontalStack=0;resizeParent=1;resizeParentMax=0;resizeLast=0;collapsible=1;marginBottom=0;" parent="WIyWlLk6GJQsqaUBKTNV-1" vertex="1">
          <mxGeometry x="-543" y="200" width="260" height="956" as="geometry" />
        </mxCell>
        <mxCell id="xebQPA5SNUuZlElYcB30-45" value="&lt;div align=&quot;left&quot;&gt;MainApplication program&lt;/div&gt;" style="text;html=1;strokeColor=none;fillColor=none;align=left;verticalAlign=middle;whiteSpace=wrap;rounded=0;" parent="xebQPA5SNUuZlElYcB30-40" vertex="1">
          <mxGeometry y="26" width="260" height="20" as="geometry" />
        </mxCell>
        <mxCell id="GBBp3sAOk5Nv1iFzANX5-26" value="GImage background" style="text;html=1;strokeColor=none;fillColor=none;align=left;verticalAlign=middle;whiteSpace=wrap;rounded=0;" vertex="1" parent="xebQPA5SNUuZlElYcB30-40">
          <mxGeometry y="46" width="260" height="20" as="geometry" />
        </mxCell>
        <mxCell id="GBBp3sAOk5Nv1iFzANX5-25" value="&lt;div align=&quot;left&quot;&gt;GImage exit&lt;/div&gt;" style="text;html=1;strokeColor=none;fillColor=none;align=left;verticalAlign=middle;whiteSpace=wrap;rounded=0;" vertex="1" parent="xebQPA5SNUuZlElYcB30-40">
          <mxGeometry y="66" width="260" height="20" as="geometry" />
        </mxCell>
        <mxCell id="xebQPA5SNUuZlElYcB30-41" value="GButton answerButton" style="text;strokeColor=none;fillColor=none;align=left;verticalAlign=top;spacingLeft=4;spacingRight=4;overflow=hidden;rotatable=0;points=[[0,0.5],[1,0.5]];portConstraint=eastwest;" parent="xebQPA5SNUuZlElYcB30-40" vertex="1">
          <mxGeometry y="86" width="260" height="26" as="geometry" />
        </mxCell>
        <mxCell id="GBBp3sAOk5Nv1iFzANX5-27" value="&lt;div align=&quot;left&quot;&gt;AudioPlayer audio&lt;/div&gt;" style="text;html=1;strokeColor=none;fillColor=none;align=left;verticalAlign=middle;whiteSpace=wrap;rounded=0;" vertex="1" parent="xebQPA5SNUuZlElYcB30-40">
          <mxGeometry y="112" width="260" height="20" as="geometry" />
        </mxCell>
        <mxCell id="GBBp3sAOk5Nv1iFzANX5-28" value="&lt;div align=&quot;left&quot;&gt;String MUSIC_FOLDER&lt;/div&gt;" style="text;html=1;strokeColor=none;fillColor=none;align=left;verticalAlign=middle;whiteSpace=wrap;rounded=0;" vertex="1" parent="xebQPA5SNUuZlElYcB30-40">
          <mxGeometry y="132" width="260" height="20" as="geometry" />
        </mxCell>
        <mxCell id="xebQPA5SNUuZlElYcB30-44" value="&lt;div align=&quot;left&quot;&gt;Cards qnaSet&lt;/div&gt;" style="text;html=1;strokeColor=none;fillColor=none;align=left;verticalAlign=middle;whiteSpace=wrap;rounded=0;" parent="xebQPA5SNUuZlElYcB30-40" vertex="1">
          <mxGeometry y="152" width="260" height="20" as="geometry" />
        </mxCell>
        <mxCell id="GBBp3sAOk5Nv1iFzANX5-29" value="&lt;div align=&quot;left&quot;&gt;ArrayList&amp;lt;GButton&amp;gt; choicesButtons&lt;/div&gt;" style="text;html=1;strokeColor=none;fillColor=none;align=left;verticalAlign=middle;whiteSpace=wrap;rounded=0;" vertex="1" parent="xebQPA5SNUuZlElYcB30-40">
          <mxGeometry y="172" width="260" height="20" as="geometry" />
        </mxCell>
        <mxCell id="GBBp3sAOk5Nv1iFzANX5-30" value="&lt;div align=&quot;left&quot;&gt;ArrayList&amp;lt;GRect&amp;gt; progressBar&lt;/div&gt;" style="text;html=1;strokeColor=none;fillColor=none;align=left;verticalAlign=middle;whiteSpace=wrap;rounded=0;" vertex="1" parent="xebQPA5SNUuZlElYcB30-40">
          <mxGeometry y="192" width="260" height="20" as="geometry" />
        </mxCell>
        <mxCell id="GBBp3sAOk5Nv1iFzANX5-32" value="GButton answerButton" style="text;html=1;strokeColor=none;fillColor=none;align=left;verticalAlign=middle;whiteSpace=wrap;rounded=0;" vertex="1" parent="xebQPA5SNUuZlElYcB30-40">
          <mxGeometry y="212" width="260" height="20" as="geometry" />
        </mxCell>
        <mxCell id="GBBp3sAOk5Nv1iFzANX5-33" value="GImage nextButton" style="text;html=1;strokeColor=none;fillColor=none;align=left;verticalAlign=middle;whiteSpace=wrap;rounded=0;" vertex="1" parent="xebQPA5SNUuZlElYcB30-40">
          <mxGeometry y="232" width="260" height="20" as="geometry" />
        </mxCell>
        <mxCell id="GBBp3sAOk5Nv1iFzANX5-34" value="GLabel correctLabel" style="text;html=1;strokeColor=none;fillColor=none;align=left;verticalAlign=middle;whiteSpace=wrap;rounded=0;" vertex="1" parent="xebQPA5SNUuZlElYcB30-40">
          <mxGeometry y="252" width="260" height="20" as="geometry" />
        </mxCell>
        <mxCell id="GBBp3sAOk5Nv1iFzANX5-35" value="&lt;div align=&quot;left&quot;&gt;GLabel incorrectLabel&lt;br&gt;&lt;/div&gt;" style="text;html=1;strokeColor=none;fillColor=none;align=left;verticalAlign=middle;whiteSpace=wrap;rounded=0;" vertex="1" parent="xebQPA5SNUuZlElYcB30-40">
          <mxGeometry y="272" width="260" height="20" as="geometry" />
        </mxCell>
        <mxCell id="GBBp3sAOk5Nv1iFzANX5-36" value="&lt;div align=&quot;left&quot;&gt;GParagraph questionParagraph&lt;/div&gt;" style="text;html=1;strokeColor=none;fillColor=none;align=left;verticalAlign=middle;whiteSpace=wrap;rounded=0;" vertex="1" parent="xebQPA5SNUuZlElYcB30-40">
          <mxGeometry y="292" width="260" height="20" as="geometry" />
        </mxCell>
        <mxCell id="GBBp3sAOk5Nv1iFzANX5-37" value="&lt;div align=&quot;left&quot;&gt;GParagraph reasonParagraph&lt;/div&gt;" style="text;html=1;strokeColor=none;fillColor=none;align=left;verticalAlign=middle;whiteSpace=wrap;rounded=0;" vertex="1" parent="xebQPA5SNUuZlElYcB30-40">
          <mxGeometry y="312" width="260" height="20" as="geometry" />
        </mxCell>
        <mxCell id="GBBp3sAOk5Nv1iFzANX5-38" value="GRect progress" style="text;html=1;strokeColor=none;fillColor=none;align=left;verticalAlign=middle;whiteSpace=wrap;rounded=0;" vertex="1" parent="xebQPA5SNUuZlElYcB30-40">
          <mxGeometry y="332" width="260" height="20" as="geometry" />
        </mxCell>
        <mxCell id="GBBp3sAOk5Nv1iFzANX5-39" value="&lt;div align=&quot;left&quot;&gt;GLabel userScore&lt;/div&gt;" style="text;html=1;strokeColor=none;fillColor=none;align=left;verticalAlign=middle;whiteSpace=wrap;rounded=0;" vertex="1" parent="xebQPA5SNUuZlElYcB30-40">
          <mxGeometry y="352" width="260" height="20" as="geometry" />
        </mxCell>
        <mxCell id="GBBp3sAOk5Nv1iFzANX5-40" value="&lt;div align=&quot;left&quot;&gt;int score&lt;/div&gt;" style="text;html=1;strokeColor=none;fillColor=none;align=left;verticalAlign=middle;whiteSpace=wrap;rounded=0;" vertex="1" parent="xebQPA5SNUuZlElYcB30-40">
          <mxGeometry y="372" width="260" height="20" as="geometry" />
        </mxCell>
        <mxCell id="GBBp3sAOk5Nv1iFzANX5-41" value="&lt;div align=&quot;left&quot;&gt;int progressDistance&lt;/div&gt;" style="text;html=1;strokeColor=none;fillColor=none;align=left;verticalAlign=middle;whiteSpace=wrap;rounded=0;" vertex="1" parent="xebQPA5SNUuZlElYcB30-40">
          <mxGeometry y="392" width="260" height="20" as="geometry" />
        </mxCell>
        <mxCell id="GBBp3sAOk5Nv1iFzANX5-42" value="&lt;div align=&quot;left&quot;&gt;boolean hasAnswered&lt;/div&gt;" style="text;html=1;strokeColor=none;fillColor=none;align=left;verticalAlign=middle;whiteSpace=wrap;rounded=0;" vertex="1" parent="xebQPA5SNUuZlElYcB30-40">
          <mxGeometry y="412" width="260" height="20" as="geometry" />
        </mxCell>
        <mxCell id="GBBp3sAOk5Nv1iFzANX5-44" value="&lt;div align=&quot;left&quot;&gt;int APP_WIDTH&lt;/div&gt;" style="text;html=1;strokeColor=none;fillColor=none;align=left;verticalAlign=middle;whiteSpace=wrap;rounded=0;" vertex="1" parent="xebQPA5SNUuZlElYcB30-40">
          <mxGeometry y="432" width="260" height="20" as="geometry" />
        </mxCell>
        <mxCell id="GBBp3sAOk5Nv1iFzANX5-45" value="&lt;div align=&quot;left&quot;&gt;int APP_HEIGHT&lt;/div&gt;" style="text;html=1;strokeColor=none;fillColor=none;align=left;verticalAlign=middle;whiteSpace=wrap;rounded=0;" vertex="1" parent="xebQPA5SNUuZlElYcB30-40">
          <mxGeometry y="452" width="260" height="20" as="geometry" />
        </mxCell>
        <mxCell id="GBBp3sAOk5Nv1iFzANX5-46" value="&lt;div align=&quot;left&quot;&gt;int EXIT_X&lt;/div&gt;" style="text;html=1;strokeColor=none;fillColor=none;align=left;verticalAlign=middle;whiteSpace=wrap;rounded=0;" vertex="1" parent="xebQPA5SNUuZlElYcB30-40">
          <mxGeometry y="472" width="260" height="20" as="geometry" />
        </mxCell>
        <mxCell id="GBBp3sAOk5Nv1iFzANX5-47" value="&lt;div align=&quot;left&quot;&gt;int EXIT_Y&lt;/div&gt;" style="text;html=1;strokeColor=none;fillColor=none;align=left;verticalAlign=middle;whiteSpace=wrap;rounded=0;" vertex="1" parent="xebQPA5SNUuZlElYcB30-40">
          <mxGeometry y="492" width="260" height="20" as="geometry" />
        </mxCell>
        <mxCell id="GBBp3sAOk5Nv1iFzANX5-48" value="&lt;div align=&quot;left&quot;&gt;int POS_X&lt;/div&gt;" style="text;html=1;strokeColor=none;fillColor=none;align=left;verticalAlign=middle;whiteSpace=wrap;rounded=0;" vertex="1" parent="xebQPA5SNUuZlElYcB30-40">
          <mxGeometry y="512" width="260" height="20" as="geometry" />
        </mxCell>
        <mxCell id="GBBp3sAOk5Nv1iFzANX5-49" value="&lt;div align=&quot;left&quot;&gt;int POS_Y&lt;/div&gt;" style="text;html=1;strokeColor=none;fillColor=none;align=left;verticalAlign=middle;whiteSpace=wrap;rounded=0;" vertex="1" parent="xebQPA5SNUuZlElYcB30-40">
          <mxGeometry y="532" width="260" height="20" as="geometry" />
        </mxCell>
        <mxCell id="GBBp3sAOk5Nv1iFzANX5-50" value="&lt;div align=&quot;left&quot;&gt;int PARAGRAPH_X&lt;/div&gt;" style="text;html=1;strokeColor=none;fillColor=none;align=left;verticalAlign=middle;whiteSpace=wrap;rounded=0;" vertex="1" parent="xebQPA5SNUuZlElYcB30-40">
          <mxGeometry y="552" width="260" height="20" as="geometry" />
        </mxCell>
        <mxCell id="GBBp3sAOk5Nv1iFzANX5-51" value="&lt;div align=&quot;left&quot;&gt;int PARAGRAPH_Y&lt;/div&gt;" style="text;html=1;strokeColor=none;fillColor=none;align=left;verticalAlign=middle;whiteSpace=wrap;rounded=0;" vertex="1" parent="xebQPA5SNUuZlElYcB30-40">
          <mxGeometry y="572" width="260" height="20" as="geometry" />
        </mxCell>
        <mxCell id="GBBp3sAOk5Nv1iFzANX5-52" value="&lt;div align=&quot;left&quot;&gt;int PROGRESS_X&lt;/div&gt;" style="text;html=1;strokeColor=none;fillColor=none;align=left;verticalAlign=middle;whiteSpace=wrap;rounded=0;" vertex="1" parent="xebQPA5SNUuZlElYcB30-40">
          <mxGeometry y="592" width="260" height="20" as="geometry" />
        </mxCell>
        <mxCell id="GBBp3sAOk5Nv1iFzANX5-53" value="&lt;div align=&quot;left&quot;&gt;int PROGRESS_Y&lt;/div&gt;" style="text;html=1;strokeColor=none;fillColor=none;align=left;verticalAlign=middle;whiteSpace=wrap;rounded=0;" vertex="1" parent="xebQPA5SNUuZlElYcB30-40">
          <mxGeometry y="612" width="260" height="20" as="geometry" />
        </mxCell>
        <mxCell id="GBBp3sAOk5Nv1iFzANX5-54" value="&lt;div align=&quot;left&quot;&gt;int PROGRESS_width&lt;/div&gt;" style="text;html=1;strokeColor=none;fillColor=none;align=left;verticalAlign=middle;whiteSpace=wrap;rounded=0;" vertex="1" parent="xebQPA5SNUuZlElYcB30-40">
          <mxGeometry y="632" width="260" height="20" as="geometry" />
        </mxCell>
        <mxCell id="GBBp3sAOk5Nv1iFzANX5-55" value="&lt;div align=&quot;left&quot;&gt;int PROGRESS_height&lt;/div&gt;" style="text;html=1;strokeColor=none;fillColor=none;align=left;verticalAlign=middle;whiteSpace=wrap;rounded=0;" vertex="1" parent="xebQPA5SNUuZlElYcB30-40">
          <mxGeometry y="652" width="260" height="20" as="geometry" />
        </mxCell>
        <mxCell id="GBBp3sAOk5Nv1iFzANX5-56" value="&lt;div align=&quot;left&quot;&gt;int CHOICES_X[ ]&lt;/div&gt;" style="text;html=1;strokeColor=none;fillColor=none;align=left;verticalAlign=middle;whiteSpace=wrap;rounded=0;" vertex="1" parent="xebQPA5SNUuZlElYcB30-40">
          <mxGeometry y="672" width="260" height="20" as="geometry" />
        </mxCell>
        <mxCell id="GBBp3sAOk5Nv1iFzANX5-57" value="&lt;div align=&quot;left&quot;&gt;int CHOICES_Y[ ]&lt;/div&gt;" style="text;html=1;strokeColor=none;fillColor=none;align=left;verticalAlign=middle;whiteSpace=wrap;rounded=0;" vertex="1" parent="xebQPA5SNUuZlElYcB30-40">
          <mxGeometry y="692" width="260" height="20" as="geometry" />
        </mxCell>
        <mxCell id="xebQPA5SNUuZlElYcB30-42" value="" style="line;strokeWidth=1;fillColor=none;align=left;verticalAlign=middle;spacingTop=-1;spacingLeft=3;spacingRight=3;rotatable=0;labelPosition=right;points=[];portConstraint=eastwest;" parent="xebQPA5SNUuZlElYcB30-40" vertex="1">
          <mxGeometry y="712" width="260" height="18" as="geometry" />
        </mxCell>
        <mxCell id="GBBp3sAOk5Nv1iFzANX5-58" value="&lt;div align=&quot;left&quot;&gt;updateParagraphs()&lt;/div&gt;" style="text;html=1;strokeColor=none;fillColor=none;align=left;verticalAlign=middle;whiteSpace=wrap;rounded=0;" vertex="1" parent="xebQPA5SNUuZlElYcB30-40">
          <mxGeometry y="730" width="260" height="20" as="geometry" />
        </mxCell>
        <mxCell id="GBBp3sAOk5Nv1iFzANX5-59" value="&lt;div align=&quot;left&quot;&gt;createLabels()&lt;/div&gt;" style="text;html=1;strokeColor=none;fillColor=none;align=left;verticalAlign=middle;whiteSpace=wrap;rounded=0;" vertex="1" parent="xebQPA5SNUuZlElYcB30-40">
          <mxGeometry y="750" width="260" height="20" as="geometry" />
        </mxCell>
        <mxCell id="GBBp3sAOk5Nv1iFzANX5-60" value="&lt;div align=&quot;left&quot;&gt;updateChoicesButtons()&lt;/div&gt;" style="text;html=1;strokeColor=none;fillColor=none;align=left;verticalAlign=middle;whiteSpace=wrap;rounded=0;" vertex="1" parent="xebQPA5SNUuZlElYcB30-40">
          <mxGeometry y="770" width="260" height="20" as="geometry" />
        </mxCell>
        <mxCell id="GBBp3sAOk5Nv1iFzANX5-61" value="&lt;div align=&quot;left&quot;&gt;updateProgressBar()&lt;/div&gt;" style="text;html=1;strokeColor=none;fillColor=none;align=left;verticalAlign=middle;whiteSpace=wrap;rounded=0;" vertex="1" parent="xebQPA5SNUuZlElYcB30-40">
          <mxGeometry y="790" width="260" height="20" as="geometry" />
        </mxCell>
        <mxCell id="GBBp3sAOk5Nv1iFzANX5-62" value="&lt;div align=&quot;left&quot;&gt;wrongAnswers()&lt;/div&gt;" style="text;html=1;strokeColor=none;fillColor=none;align=left;verticalAlign=middle;whiteSpace=wrap;rounded=0;" vertex="1" parent="xebQPA5SNUuZlElYcB30-40">
          <mxGeometry y="810" width="260" height="20" as="geometry" />
        </mxCell>
        <mxCell id="GBBp3sAOk5Nv1iFzANX5-63" value="&lt;div align=&quot;left&quot;&gt;updateScore()&lt;/div&gt;" style="text;html=1;strokeColor=none;fillColor=none;align=left;verticalAlign=middle;whiteSpace=wrap;rounded=0;" vertex="1" parent="xebQPA5SNUuZlElYcB30-40">
          <mxGeometry y="830" width="260" height="20" as="geometry" />
        </mxCell>
        <mxCell id="GBBp3sAOk5Nv1iFzANX5-64" value="getScore()" style="text;html=1;strokeColor=none;fillColor=none;align=left;verticalAlign=middle;whiteSpace=wrap;rounded=0;" vertex="1" parent="xebQPA5SNUuZlElYcB30-40">
          <mxGeometry y="850" width="260" height="20" as="geometry" />
        </mxCell>
        <mxCell id="GBBp3sAOk5Nv1iFzANX5-65" value="getListSize()" style="text;html=1;strokeColor=none;fillColor=none;align=left;verticalAlign=middle;whiteSpace=wrap;rounded=0;" vertex="1" parent="xebQPA5SNUuZlElYcB30-40">
          <mxGeometry y="870" width="260" height="20" as="geometry" />
        </mxCell>
        <mxCell id="xebQPA5SNUuZlElYcB30-48" value="&lt;div align=&quot;left&quot;&gt;hideContents()&lt;/div&gt;" style="text;html=1;strokeColor=none;fillColor=none;align=left;verticalAlign=middle;whiteSpace=wrap;rounded=0;" parent="xebQPA5SNUuZlElYcB30-40" vertex="1">
          <mxGeometry y="890" width="260" height="20" as="geometry" />
        </mxCell>
        <mxCell id="xebQPA5SNUuZlElYcB30-43" value="showContents()" style="text;strokeColor=none;fillColor=none;align=left;verticalAlign=top;spacingLeft=4;spacingRight=4;overflow=hidden;rotatable=0;points=[[0,0.5],[1,0.5]];portConstraint=eastwest;" parent="xebQPA5SNUuZlElYcB30-40" vertex="1">
          <mxGeometry y="910" width="260" height="26" as="geometry" />
        </mxCell>
        <mxCell id="xebQPA5SNUuZlElYcB30-50" value="&lt;div align=&quot;left&quot;&gt;mousePressed()&lt;/div&gt;" style="text;html=1;strokeColor=none;fillColor=none;align=left;verticalAlign=middle;whiteSpace=wrap;rounded=0;" parent="xebQPA5SNUuZlElYcB30-40" vertex="1">
          <mxGeometry y="936" width="260" height="20" as="geometry" />
        </mxCell>
        <mxCell id="xebQPA5SNUuZlElYcB30-58" value="MainApplication" style="swimlane;fontStyle=1;align=center;verticalAlign=top;childLayout=stackLayout;horizontal=1;startSize=26;horizontalStack=0;resizeParent=1;resizeParentMax=0;resizeLast=0;collapsible=1;marginBottom=0;" parent="WIyWlLk6GJQsqaUBKTNV-1" vertex="1">
          <mxGeometry x="270" y="20" width="160" height="298" as="geometry" />
        </mxCell>
        <mxCell id="GBBp3sAOk5Nv1iFzANX5-68" value="&lt;div align=&quot;left&quot;&gt;int WINDOW_WIDTH&lt;/div&gt;" style="text;html=1;strokeColor=none;fillColor=none;align=left;verticalAlign=middle;whiteSpace=wrap;rounded=0;" vertex="1" parent="xebQPA5SNUuZlElYcB30-58">
          <mxGeometry y="26" width="160" height="20" as="geometry" />
        </mxCell>
        <mxCell id="GBBp3sAOk5Nv1iFzANX5-69" value="&lt;div align=&quot;left&quot;&gt;int WINDOW_HEIGHT&lt;/div&gt;" style="text;html=1;strokeColor=none;fillColor=none;align=left;verticalAlign=middle;whiteSpace=wrap;rounded=0;" vertex="1" parent="xebQPA5SNUuZlElYcB30-58">
          <mxGeometry y="46" width="160" height="20" as="geometry" />
        </mxCell>
        <mxCell id="KH0oMgd1c5yute4s8Psu-5" value="&lt;div align=&quot;left&quot;&gt;String MUSIC_FOLDER&lt;br&gt;&lt;/div&gt;" style="text;html=1;strokeColor=none;fillColor=none;align=left;verticalAlign=middle;whiteSpace=wrap;rounded=0;" parent="xebQPA5SNUuZlElYcB30-58" vertex="1">
          <mxGeometry y="66" width="160" height="20" as="geometry" />
        </mxCell>
        <mxCell id="zkfFHV4jXpPFQw0GAbJ--18" value="audioPlayer audio" style="text;align=left;verticalAlign=top;spacingLeft=4;spacingRight=4;overflow=hidden;rotatable=0;points=[[0,0.5],[1,0.5]];portConstraint=eastwest;" parent="xebQPA5SNUuZlElYcB30-58" vertex="1">
          <mxGeometry y="86" width="160" height="24" as="geometry" />
        </mxCell>
        <mxCell id="GBBp3sAOk5Nv1iFzANX5-67" value="&lt;div align=&quot;left&quot;&gt;String QNA_FILE&lt;/div&gt;" style="text;html=1;strokeColor=none;fillColor=none;align=left;verticalAlign=middle;whiteSpace=wrap;rounded=0;" vertex="1" parent="xebQPA5SNUuZlElYcB30-58">
          <mxGeometry y="110" width="160" height="20" as="geometry" />
        </mxCell>
        <mxCell id="KH0oMgd1c5yute4s8Psu-6" value="ResultsPane resultsPane" style="text;html=1;strokeColor=none;fillColor=none;align=center;verticalAlign=middle;whiteSpace=wrap;rounded=0;" parent="xebQPA5SNUuZlElYcB30-58" vertex="1">
          <mxGeometry y="130" width="160" height="20" as="geometry" />
        </mxCell>
        <mxCell id="GBBp3sAOk5Nv1iFzANX5-70" style="edgeStyle=orthogonalEdgeStyle;rounded=0;orthogonalLoop=1;jettySize=auto;html=1;exitX=1;exitY=0.5;exitDx=0;exitDy=0;entryX=1;entryY=0.75;entryDx=0;entryDy=0;" edge="1" parent="xebQPA5SNUuZlElYcB30-58" source="KH0oMgd1c5yute4s8Psu-7" target="KH0oMgd1c5yute4s8Psu-6">
          <mxGeometry relative="1" as="geometry" />
        </mxCell>
        <mxCell id="KH0oMgd1c5yute4s8Psu-7" value="&lt;div align=&quot;left&quot;&gt;MenuPane menu&lt;/div&gt;" style="text;html=1;strokeColor=none;fillColor=none;align=left;verticalAlign=middle;whiteSpace=wrap;rounded=0;" parent="xebQPA5SNUuZlElYcB30-58" vertex="1">
          <mxGeometry y="150" width="160" height="20" as="geometry" />
        </mxCell>
        <mxCell id="KH0oMgd1c5yute4s8Psu-8" value="GamePlayPane gamePane" style="text;html=1;strokeColor=none;fillColor=none;align=center;verticalAlign=middle;whiteSpace=wrap;rounded=0;" parent="xebQPA5SNUuZlElYcB30-58" vertex="1">
          <mxGeometry y="170" width="160" height="20" as="geometry" />
        </mxCell>
        <mxCell id="xebQPA5SNUuZlElYcB30-60" value="" style="line;strokeWidth=1;fillColor=none;align=left;verticalAlign=middle;spacingTop=-1;spacingLeft=3;spacingRight=3;rotatable=0;labelPosition=right;points=[];portConstraint=eastwest;" parent="xebQPA5SNUuZlElYcB30-58" vertex="1">
          <mxGeometry y="190" width="160" height="8" as="geometry" />
        </mxCell>
        <mxCell id="NdgY7wbA8HRYmO2Sopo_-4" value="&lt;div align=&quot;left&quot;&gt;init()&lt;/div&gt;" style="text;html=1;strokeColor=none;fillColor=none;align=left;verticalAlign=middle;whiteSpace=wrap;rounded=0;" parent="xebQPA5SNUuZlElYcB30-58" vertex="1">
          <mxGeometry y="198" width="160" height="20" as="geometry" />
        </mxCell>
        <mxCell id="xebQPA5SNUuZlElYcB30-83" value="run()" style="text;html=1;strokeColor=none;fillColor=none;align=left;verticalAlign=middle;whiteSpace=wrap;rounded=0;" parent="xebQPA5SNUuZlElYcB30-58" vertex="1">
          <mxGeometry y="218" width="160" height="20" as="geometry" />
        </mxCell>
        <mxCell id="KH0oMgd1c5yute4s8Psu-1" value="switchToMenu()" style="text;html=1;strokeColor=none;fillColor=none;align=left;verticalAlign=middle;whiteSpace=wrap;rounded=0;" parent="xebQPA5SNUuZlElYcB30-58" vertex="1">
          <mxGeometry y="238" width="160" height="20" as="geometry" />
        </mxCell>
        <mxCell id="KH0oMgd1c5yute4s8Psu-3" value="switchToGameplay()" style="text;html=1;strokeColor=none;fillColor=none;align=left;verticalAlign=middle;whiteSpace=wrap;rounded=0;" parent="xebQPA5SNUuZlElYcB30-58" vertex="1">
          <mxGeometry y="258" width="160" height="20" as="geometry" />
        </mxCell>
        <mxCell id="GBBp3sAOk5Nv1iFzANX5-74" value="&lt;div align=&quot;left&quot;&gt;switchToResults()&lt;/div&gt;" style="text;html=1;strokeColor=none;fillColor=none;align=left;verticalAlign=middle;whiteSpace=wrap;rounded=0;" vertex="1" parent="xebQPA5SNUuZlElYcB30-58">
          <mxGeometry y="278" width="160" height="20" as="geometry" />
        </mxCell>
        <mxCell id="xebQPA5SNUuZlElYcB30-63" style="edgeStyle=orthogonalEdgeStyle;rounded=0;orthogonalLoop=1;jettySize=auto;html=1;exitX=1;exitY=0.5;exitDx=0;exitDy=0;" parent="WIyWlLk6GJQsqaUBKTNV-1" source="GBBp3sAOk5Nv1iFzANX5-28" edge="1">
          <mxGeometry relative="1" as="geometry">
            <mxPoint x="290" y="324" as="targetPoint" />
            <Array as="points">
              <mxPoint x="-180" y="342" />
              <mxPoint x="-180" y="489" />
              <mxPoint x="170" y="489" />
              <mxPoint x="170" y="390" />
              <mxPoint x="290" y="390" />
            </Array>
            <mxPoint x="-410" y="410" as="sourcePoint" />
          </mxGeometry>
        </mxCell>
        <mxCell id="xebQPA5SNUuZlElYcB30-66" style="edgeStyle=orthogonalEdgeStyle;rounded=0;orthogonalLoop=1;jettySize=auto;html=1;" parent="WIyWlLk6GJQsqaUBKTNV-1" source="xebQPA5SNUuZlElYcB30-16" target="xebQPA5SNUuZlElYcB30-58" edge="1">
          <mxGeometry relative="1" as="geometry" />
        </mxCell>
        <mxCell id="xebQPA5SNUuZlElYcB30-75" style="edgeStyle=orthogonalEdgeStyle;rounded=0;orthogonalLoop=1;jettySize=auto;html=1;entryX=0.988;entryY=-0.154;entryDx=0;entryDy=0;entryPerimeter=0;" parent="WIyWlLk6GJQsqaUBKTNV-1" source="xebQPA5SNUuZlElYcB30-77" edge="1" target="xebQPA5SNUuZlElYcB30-43">
          <mxGeometry relative="1" as="geometry">
            <mxPoint x="-8" y="630" as="targetPoint" />
            <Array as="points">
              <mxPoint y="1100" />
              <mxPoint x="-40" y="1100" />
              <mxPoint x="-40" y="1106" />
            </Array>
          </mxGeometry>
        </mxCell>
        <mxCell id="xebQPA5SNUuZlElYcB30-71" value="GraphicsPane" style="swimlane;fontStyle=1;align=center;verticalAlign=top;childLayout=stackLayout;horizontal=1;startSize=26;horizontalStack=0;resizeParent=1;resizeParentMax=0;resizeLast=0;collapsible=1;marginBottom=0;" parent="WIyWlLk6GJQsqaUBKTNV-1" vertex="1">
          <mxGeometry x="200" y="760" width="160" height="88" as="geometry" />
        </mxCell>
        <mxCell id="xebQPA5SNUuZlElYcB30-72" value="all pre-implemented stuff" style="text;strokeColor=none;fillColor=none;align=left;verticalAlign=top;spacingLeft=4;spacingRight=4;overflow=hidden;rotatable=0;points=[[0,0.5],[1,0.5]];portConstraint=eastwest;" parent="xebQPA5SNUuZlElYcB30-71" vertex="1">
          <mxGeometry y="26" width="160" height="26" as="geometry" />
        </mxCell>
        <mxCell id="xebQPA5SNUuZlElYcB30-73" value="" style="line;strokeWidth=1;fillColor=none;align=left;verticalAlign=middle;spacingTop=-1;spacingLeft=3;spacingRight=3;rotatable=0;labelPosition=right;points=[];portConstraint=eastwest;" parent="xebQPA5SNUuZlElYcB30-71" vertex="1">
          <mxGeometry y="52" width="160" height="10" as="geometry" />
        </mxCell>
        <mxCell id="xebQPA5SNUuZlElYcB30-74" value="+ method(type): type" style="text;strokeColor=none;fillColor=none;align=left;verticalAlign=top;spacingLeft=4;spacingRight=4;overflow=hidden;rotatable=0;points=[[0,0.5],[1,0.5]];portConstraint=eastwest;" parent="xebQPA5SNUuZlElYcB30-71" vertex="1">
          <mxGeometry y="62" width="160" height="26" as="geometry" />
        </mxCell>
        <mxCell id="xebQPA5SNUuZlElYcB30-76" style="edgeStyle=orthogonalEdgeStyle;rounded=0;orthogonalLoop=1;jettySize=auto;html=1;exitX=1;exitY=0.5;exitDx=0;exitDy=0;" parent="WIyWlLk6GJQsqaUBKTNV-1" source="xebQPA5SNUuZlElYcB30-79" target="xebQPA5SNUuZlElYcB30-51" edge="1">
          <mxGeometry relative="1" as="geometry">
            <mxPoint x="500" y="730" as="targetPoint" />
            <Array as="points">
              <mxPoint x="570" y="780" />
              <mxPoint x="570" y="770" />
              <mxPoint x="560" y="770" />
            </Array>
          </mxGeometry>
        </mxCell>
        <mxCell id="xebQPA5SNUuZlElYcB30-77" value="extends to" style="text;html=1;strokeColor=none;fillColor=none;align=center;verticalAlign=middle;whiteSpace=wrap;rounded=0;" parent="WIyWlLk6GJQsqaUBKTNV-1" vertex="1">
          <mxGeometry x="-30" y="760.5" width="40" height="20" as="geometry" />
        </mxCell>
        <mxCell id="xebQPA5SNUuZlElYcB30-78" style="edgeStyle=orthogonalEdgeStyle;rounded=0;orthogonalLoop=1;jettySize=auto;html=1;entryX=0.819;entryY=1.15;entryDx=0;entryDy=0;entryPerimeter=0;" parent="WIyWlLk6GJQsqaUBKTNV-1" source="xebQPA5SNUuZlElYcB30-71" target="xebQPA5SNUuZlElYcB30-77" edge="1">
          <mxGeometry relative="1" as="geometry">
            <mxPoint x="170" y="730" as="sourcePoint" />
            <mxPoint x="221.03999999999996" y="669" as="targetPoint" />
          </mxGeometry>
        </mxCell>
        <mxCell id="xebQPA5SNUuZlElYcB30-79" value="extends to" style="text;html=1;strokeColor=none;fillColor=none;align=center;verticalAlign=middle;whiteSpace=wrap;rounded=0;" parent="WIyWlLk6GJQsqaUBKTNV-1" vertex="1">
          <mxGeometry x="510" y="770" width="40" height="20" as="geometry" />
        </mxCell>
        <mxCell id="xebQPA5SNUuZlElYcB30-93" style="edgeStyle=orthogonalEdgeStyle;rounded=0;orthogonalLoop=1;jettySize=auto;html=1;exitX=1;exitY=0.5;exitDx=0;exitDy=0;" parent="WIyWlLk6GJQsqaUBKTNV-1" source="xebQPA5SNUuZlElYcB30-72" target="xebQPA5SNUuZlElYcB30-79" edge="1">
          <mxGeometry relative="1" as="geometry">
            <mxPoint x="420" y="869" as="sourcePoint" />
            <mxPoint x="530" y="660" as="targetPoint" />
          </mxGeometry>
        </mxCell>
        <mxCell id="NjhyR1131A858VyeEAT_-0" value="ResultsPane" style="swimlane;fontStyle=1;align=center;verticalAlign=top;childLayout=stackLayout;horizontal=1;startSize=26;horizontalStack=0;resizeParent=1;resizeParentMax=0;resizeLast=0;collapsible=1;marginBottom=0;" parent="WIyWlLk6GJQsqaUBKTNV-1" vertex="1">
          <mxGeometry x="670" y="170" width="160" height="410" as="geometry" />
        </mxCell>
        <mxCell id="GBBp3sAOk5Nv1iFzANX5-1" value="&lt;div align=&quot;left&quot;&gt;MainApplication program&lt;/div&gt;" style="text;html=1;strokeColor=none;fillColor=none;align=left;verticalAlign=middle;whiteSpace=wrap;rounded=0;" vertex="1" parent="NjhyR1131A858VyeEAT_-0">
          <mxGeometry y="26" width="160" height="20" as="geometry" />
        </mxCell>
        <mxCell id="GBBp3sAOk5Nv1iFzANX5-4" value="&lt;div align=&quot;left&quot;&gt;GImage background&lt;/div&gt;" style="text;html=1;strokeColor=none;fillColor=none;align=left;verticalAlign=middle;whiteSpace=wrap;rounded=0;" vertex="1" parent="NjhyR1131A858VyeEAT_-0">
          <mxGeometry y="46" width="160" height="20" as="geometry" />
        </mxCell>
        <mxCell id="GBBp3sAOk5Nv1iFzANX5-5" value="&lt;div align=&quot;left&quot;&gt;GImage returnToMenu&lt;/div&gt;" style="text;html=1;strokeColor=none;fillColor=none;align=left;verticalAlign=middle;whiteSpace=wrap;rounded=0;" vertex="1" parent="NjhyR1131A858VyeEAT_-0">
          <mxGeometry y="66" width="160" height="20" as="geometry" />
        </mxCell>
        <mxCell id="GBBp3sAOk5Nv1iFzANX5-20" value="&lt;div align=&quot;left&quot;&gt;GLabel userScore&lt;/div&gt;" style="text;html=1;strokeColor=none;fillColor=none;align=left;verticalAlign=middle;whiteSpace=wrap;rounded=0;" vertex="1" parent="NjhyR1131A858VyeEAT_-0">
          <mxGeometry y="86" width="160" height="20" as="geometry" />
        </mxCell>
        <mxCell id="GBBp3sAOk5Nv1iFzANX5-21" value="&lt;div align=&quot;left&quot;&gt;GLabel percentage&lt;/div&gt;" style="text;html=1;strokeColor=none;fillColor=none;align=left;verticalAlign=middle;whiteSpace=wrap;rounded=0;" vertex="1" parent="NjhyR1131A858VyeEAT_-0">
          <mxGeometry y="106" width="160" height="20" as="geometry" />
        </mxCell>
        <mxCell id="GBBp3sAOk5Nv1iFzANX5-6" value="&lt;div align=&quot;left&quot;&gt;int score&lt;/div&gt;" style="text;html=1;strokeColor=none;fillColor=none;align=left;verticalAlign=middle;whiteSpace=wrap;rounded=0;" vertex="1" parent="NjhyR1131A858VyeEAT_-0">
          <mxGeometry y="126" width="160" height="20" as="geometry" />
        </mxCell>
        <mxCell id="GBBp3sAOk5Nv1iFzANX5-7" value="&lt;div align=&quot;left&quot;&gt;int percent&lt;/div&gt;" style="text;html=1;strokeColor=none;fillColor=none;align=left;verticalAlign=middle;whiteSpace=wrap;rounded=0;" vertex="1" parent="NjhyR1131A858VyeEAT_-0">
          <mxGeometry y="146" width="160" height="20" as="geometry" />
        </mxCell>
        <mxCell id="GBBp3sAOk5Nv1iFzANX5-8" value="&lt;div align=&quot;left&quot;&gt;int listSize&lt;/div&gt;" style="text;html=1;strokeColor=none;fillColor=none;align=left;verticalAlign=middle;whiteSpace=wrap;rounded=0;" vertex="1" parent="NjhyR1131A858VyeEAT_-0">
          <mxGeometry y="166" width="160" height="20" as="geometry" />
        </mxCell>
        <mxCell id="GBBp3sAOk5Nv1iFzANX5-9" value="&lt;div align=&quot;left&quot;&gt;ArrayList&amp;lt;String&amp;gt; results&lt;/div&gt;" style="text;html=1;strokeColor=none;fillColor=none;align=left;verticalAlign=middle;whiteSpace=wrap;rounded=0;" vertex="1" parent="NjhyR1131A858VyeEAT_-0">
          <mxGeometry y="186" width="160" height="20" as="geometry" />
        </mxCell>
        <mxCell id="GBBp3sAOk5Nv1iFzANX5-10" value="&lt;div align=&quot;left&quot;&gt;GParagraph result&lt;/div&gt;" style="text;html=1;strokeColor=none;fillColor=none;align=left;verticalAlign=middle;whiteSpace=wrap;rounded=0;" vertex="1" parent="NjhyR1131A858VyeEAT_-0">
          <mxGeometry y="206" width="160" height="16" as="geometry" />
        </mxCell>
        <mxCell id="NjhyR1131A858VyeEAT_-2" value="" style="line;strokeWidth=1;fillColor=none;align=left;verticalAlign=middle;spacingTop=-1;spacingLeft=3;spacingRight=3;rotatable=0;labelPosition=right;points=[];portConstraint=eastwest;" parent="NjhyR1131A858VyeEAT_-0" vertex="1">
          <mxGeometry y="222" width="160" height="8" as="geometry" />
        </mxCell>
        <mxCell id="GBBp3sAOk5Nv1iFzANX5-11" value="&lt;div align=&quot;left&quot;&gt;setResults()&lt;/div&gt;" style="text;html=1;strokeColor=none;fillColor=none;align=left;verticalAlign=middle;whiteSpace=wrap;rounded=0;" vertex="1" parent="NjhyR1131A858VyeEAT_-0">
          <mxGeometry y="230" width="160" height="20" as="geometry" />
        </mxCell>
        <mxCell id="GBBp3sAOk5Nv1iFzANX5-12" value="&lt;div align=&quot;left&quot;&gt;showResults()&lt;/div&gt;" style="text;html=1;strokeColor=none;fillColor=none;align=left;verticalAlign=middle;whiteSpace=wrap;rounded=0;" vertex="1" parent="NjhyR1131A858VyeEAT_-0">
          <mxGeometry y="250" width="160" height="20" as="geometry" />
        </mxCell>
        <mxCell id="GBBp3sAOk5Nv1iFzANX5-13" value="&lt;div align=&quot;left&quot;&gt;setScore()&lt;/div&gt;" style="text;html=1;strokeColor=none;fillColor=none;align=left;verticalAlign=middle;whiteSpace=wrap;rounded=0;" vertex="1" parent="NjhyR1131A858VyeEAT_-0">
          <mxGeometry y="270" width="160" height="20" as="geometry" />
        </mxCell>
        <mxCell id="GBBp3sAOk5Nv1iFzANX5-14" value="&lt;div align=&quot;left&quot;&gt;setListSize()&lt;/div&gt;" style="text;html=1;strokeColor=none;fillColor=none;align=left;verticalAlign=middle;whiteSpace=wrap;rounded=0;" vertex="1" parent="NjhyR1131A858VyeEAT_-0">
          <mxGeometry y="290" width="160" height="20" as="geometry" />
        </mxCell>
        <mxCell id="GBBp3sAOk5Nv1iFzANX5-15" value="&lt;div align=&quot;left&quot;&gt;setPercentage()&lt;/div&gt;" style="text;html=1;strokeColor=none;fillColor=none;align=left;verticalAlign=middle;whiteSpace=wrap;rounded=0;" vertex="1" parent="NjhyR1131A858VyeEAT_-0">
          <mxGeometry y="310" width="160" height="20" as="geometry" />
        </mxCell>
        <mxCell id="GBBp3sAOk5Nv1iFzANX5-16" value="&lt;div align=&quot;left&quot;&gt;showScore()&lt;/div&gt;" style="text;html=1;strokeColor=none;fillColor=none;align=left;verticalAlign=middle;whiteSpace=wrap;rounded=0;" vertex="1" parent="NjhyR1131A858VyeEAT_-0">
          <mxGeometry y="330" width="160" height="20" as="geometry" />
        </mxCell>
        <mxCell id="GBBp3sAOk5Nv1iFzANX5-17" value="&lt;div align=&quot;left&quot;&gt;showContents()&lt;/div&gt;" style="text;html=1;strokeColor=none;fillColor=none;align=left;verticalAlign=middle;whiteSpace=wrap;rounded=0;" vertex="1" parent="NjhyR1131A858VyeEAT_-0">
          <mxGeometry y="350" width="160" height="20" as="geometry" />
        </mxCell>
        <mxCell id="GBBp3sAOk5Nv1iFzANX5-18" value="&lt;div align=&quot;left&quot;&gt;hideContents()&lt;/div&gt;" style="text;html=1;strokeColor=none;fillColor=none;align=left;verticalAlign=middle;whiteSpace=wrap;rounded=0;" vertex="1" parent="NjhyR1131A858VyeEAT_-0">
          <mxGeometry y="370" width="160" height="20" as="geometry" />
        </mxCell>
        <mxCell id="GBBp3sAOk5Nv1iFzANX5-19" value="&lt;div align=&quot;left&quot;&gt;mousePressed()&lt;/div&gt;" style="text;html=1;strokeColor=none;fillColor=none;align=left;verticalAlign=middle;whiteSpace=wrap;rounded=0;" vertex="1" parent="NjhyR1131A858VyeEAT_-0">
          <mxGeometry y="390" width="160" height="20" as="geometry" />
        </mxCell>
        <mxCell id="GBBp3sAOk5Nv1iFzANX5-0" style="edgeStyle=orthogonalEdgeStyle;rounded=0;orthogonalLoop=1;jettySize=auto;html=1;exitX=0;exitY=0.5;exitDx=0;exitDy=0;entryX=1;entryY=0.5;entryDx=0;entryDy=0;" edge="1" parent="WIyWlLk6GJQsqaUBKTNV-1" source="GBBp3sAOk5Nv1iFzANX5-5" target="KH0oMgd1c5yute4s8Psu-7">
          <mxGeometry relative="1" as="geometry">
            <mxPoint x="700" y="79" as="sourcePoint" />
            <Array as="points">
              <mxPoint x="670" y="240" />
              <mxPoint x="630" y="240" />
              <mxPoint x="630" y="170" />
              <mxPoint x="430" y="170" />
            </Array>
          </mxGeometry>
        </mxCell>
        <mxCell id="GBBp3sAOk5Nv1iFzANX5-22" style="edgeStyle=orthogonalEdgeStyle;rounded=0;orthogonalLoop=1;jettySize=auto;html=1;exitX=0.5;exitY=0;exitDx=0;exitDy=0;entryX=0.45;entryY=1.2;entryDx=0;entryDy=0;entryPerimeter=0;" edge="1" parent="WIyWlLk6GJQsqaUBKTNV-1" source="GBBp3sAOk5Nv1iFzANX5-23" target="GBBp3sAOk5Nv1iFzANX5-19">
          <mxGeometry relative="1" as="geometry">
            <Array as="points">
              <mxPoint x="750" y="771" />
              <mxPoint x="750" y="584" />
            </Array>
          </mxGeometry>
        </mxCell>
        <mxCell id="GBBp3sAOk5Nv1iFzANX5-23" value="extends to" style="text;html=1;strokeColor=none;fillColor=none;align=center;verticalAlign=middle;whiteSpace=wrap;rounded=0;" vertex="1" parent="WIyWlLk6GJQsqaUBKTNV-1">
          <mxGeometry x="840" y="771" width="40" height="20" as="geometry" />
        </mxCell>
        <mxCell id="GBBp3sAOk5Nv1iFzANX5-24" style="edgeStyle=orthogonalEdgeStyle;rounded=0;orthogonalLoop=1;jettySize=auto;html=1;exitX=1;exitY=0.5;exitDx=0;exitDy=0;entryX=0.25;entryY=1;entryDx=0;entryDy=0;" edge="1" parent="WIyWlLk6GJQsqaUBKTNV-1" source="xebQPA5SNUuZlElYcB30-74" target="GBBp3sAOk5Nv1iFzANX5-23">
          <mxGeometry relative="1" as="geometry">
            <mxPoint x="390" y="895" as="sourcePoint" />
            <mxPoint x="860" y="474" as="targetPoint" />
            <Array as="points">
              <mxPoint x="810" y="835" />
              <mxPoint x="810" y="791" />
            </Array>
          </mxGeometry>
        </mxCell>
      </root>
    </mxGraphModel>
  </diagram>
</mxfile>
